<?xml version="1.0" standalone="no"?>
<!DOCTYPE svg PUBLIC "-//W3C//DTD SVG 20010904//EN"
 "http://www.w3.org/TR/2001/REC-SVG-20010904/DTD/svg10.dtd">
<svg version="1.0" xmlns="http://www.w3.org/2000/svg"
 width="249.000000pt" height="222.000000pt" viewBox="0 0 249.000000 222.000000"
 preserveAspectRatio="xMidYMid meet">

<g transform="translate(0.000000,222.000000) scale(0.100000,-0.100000)"
fill="#000000" stroke="none">
<path d="M0 1115 l0 -1105 1240 0 1240 0 0 1105 0 1105 -1240 0 -1240 0 0
-1105z m2410 0 l0 -1025 -1165 0 -1165 0 0 1025 0 1025 1165 0 1165 0 0 -1025z"/>
<path d="M2090 1883 c0 -5 9 -22 19 -40 19 -29 19 -32 2 -47 -16 -14 -105 -38
-196 -52 -56 -8 -115 -68 -115 -117 0 -20 5 -39 10 -42 6 -3 10 -25 10 -48 0
-23 3 -53 7 -65 5 -21 9 -23 42 -16 20 5 59 8 86 6 28 -1 80 3 117 8 85 13
113 2 125 -48 5 -20 15 -38 22 -40 10 -3 12 2 7 22 -7 29 -4 31 25 16 30 -17
46 0 19 20 l-23 17 27 7 c14 3 26 11 26 16 0 13 -10 13 -49 -1 -65 -23 -111
26 -111 118 0 17 -11 47 -26 68 -22 32 -24 42 -14 68 18 54 37 67 86 60 30 -4
44 -2 44 6 0 6 -11 11 -25 11 -30 0 -32 11 -5 35 32 29 12 37 -24 10 l-32 -24
-18 29 c-16 28 -36 40 -36 23z m-10 -141 c0 -14 -11 -21 -26 -15 -8 3 -11 9
-8 14 7 11 34 12 34 1z m-46 -35 c51 -29 78 -66 79 -110 2 -74 -37 -107 -124
-107 l-51 0 4 43 3 42 -55 5 c-48 4 -56 8 -64 31 -11 33 14 73 63 99 48 25 98
25 145 -3z m-161 -183 c-15 -24 -17 -25 -24 -8 -12 30 -10 34 16 34 25 0 25 0
8 -26z m45 -29 c-2 -1 -14 -6 -27 -10 l-23 -7 23 32 c22 30 24 31 27 10 2 -12
2 -23 0 -25z m212 20 c0 -8 -4 -15 -10 -15 -5 0 -7 7 -4 15 4 8 8 15 10 15 2
0 4 -7 4 -15z"/>
<path d="M1871 1678 c-10 -26 1 -52 26 -66 25 -15 72 6 79 34 9 35 -12 54 -58
54 -31 0 -40 -4 -47 -22z m82 -12 c7 -17 -11 -36 -34 -36 -18 0 -33 26 -23 41
8 14 51 11 57 -5z"/>
<path d="M1915 1661 c-3 -5 -1 -12 5 -16 5 -3 10 1 10 9 0 18 -6 21 -15 7z"/>
<path d="M997 1843 c-49 -15 -59 -35 -19 -41 20 -3 22 -9 22 -62 l0 -59 -27
15 c-36 18 -57 18 -99 -2 -91 -43 -100 -225 -13 -269 36 -19 89 -19 116 0 19
13 22 13 27 0 7 -20 96 -21 96 -1 0 8 -12 17 -26 20 l-26 7 3 199 c2 109 2
200 -1 202 -3 3 -27 -2 -53 -9z m-19 -189 c20 -14 22 -24 22 -99 0 -93 -8
-105 -67 -105 -51 0 -73 32 -73 105 0 95 56 142 118 99z"/>
<path d="M222 1803 c2 -10 13 -19 25 -21 12 -2 24 -13 27 -25 8 -32 7 -280 -2
-293 -4 -7 -16 -13 -27 -15 -11 -3 -21 -12 -23 -22 -3 -15 6 -17 83 -17 77 0
86 2 83 18 -2 9 -13 18 -26 20 -20 3 -22 9 -22 63 l0 59 33 0 c95 0 157 49
157 126 0 89 -67 124 -237 124 -66 0 -74 -2 -71 -17z m223 -48 c27 -26 32 -68
14 -109 -12 -26 -54 -46 -95 -46 -23 0 -24 2 -24 90 l0 90 40 0 c30 0 47 -7
65 -25z"/>
<path d="M600 1692 c-19 -9 -45 -33 -58 -52 -20 -30 -23 -44 -20 -99 4 -58 7
-66 41 -97 31 -29 44 -34 87 -34 41 0 55 5 85 31 43 38 33 65 -11 30 -56 -44
-144 -7 -144 60 l0 29 95 0 c95 0 95 0 95 25 0 48 -27 95 -64 110 -46 19 -63
19 -106 -3z m98 -34 c6 -6 12 -23 12 -39 0 -29 0 -29 -65 -29 -68 0 -72 3 -54
44 19 42 70 53 107 24z"/>
<path d="M1173 1690 c-46 -20 -55 -39 -24 -47 43 -11 42 -189 -1 -201 -41 -10
-8 -27 60 -30 57 -2 72 0 72 11 0 8 -11 18 -25 21 -24 6 -25 10 -25 79 0 55 5
80 20 105 17 27 24 32 35 22 19 -16 56 -9 69 13 9 15 7 21 -9 33 -26 19 -64
10 -91 -21 l-22 -23 -8 29 -9 28 -42 -19z"/>
<path d="M1440 1692 c-52 -26 -80 -74 -80 -137 0 -88 52 -145 135 -145 52 0
84 17 113 60 20 30 23 44 20 97 -4 70 -27 105 -85 129 -42 18 -61 18 -103 -4z
m78 -23 c40 -14 56 -53 50 -129 -5 -71 -26 -100 -73 -100 -49 0 -69 29 -73
110 -4 66 -3 71 26 100 35 35 30 33 70 19z"/>
<path d="M1609 1279 c-9 -18 -7 -25 9 -41 23 -24 58 -17 67 13 14 44 -53 69
-76 28z"/>
<path d="M210 1256 c0 -8 11 -17 25 -20 l25 -6 0 -165 0 -164 -27 -3 c-14 -2
-28 -9 -31 -15 -3 -10 15 -13 67 -13 55 0 71 3 71 14 0 8 -10 16 -22 18 -22 3
-23 6 -25 143 l-2 140 57 -140 c32 -77 61 -148 65 -157 11 -30 44 -22 56 15 6
17 33 88 61 157 l49 125 1 -142 0 -143 -25 0 c-16 0 -25 -6 -25 -15 0 -12 16
-15 80 -15 64 0 80 3 80 15 0 9 -9 15 -25 15 l-25 0 2 168 c3 165 3 167 26
170 12 2 22 10 22 18 0 10 -14 14 -59 14 l-58 0 -59 -155 c-32 -85 -61 -155
-65 -155 -3 0 -34 70 -68 155 l-64 155 -53 0 c-40 0 -54 -4 -54 -14z"/>
<path d="M795 1150 c-48 -19 -85 -83 -85 -146 0 -110 123 -181 210 -122 44 30
64 70 64 128 -1 107 -97 179 -189 140z m95 -38 c45 -37 45 -168 -1 -204 -45
-37 -102 -9 -115 58 -21 114 48 201 116 146z"/>
<path d="M1068 1143 c-42 -17 -50 -40 -15 -45 21 -3 22 -8 25 -100 3 -93 2
-97 -19 -100 -13 -2 -24 -9 -27 -15 -3 -10 16 -13 73 -13 57 0 76 3 73 13 -3
6 -14 13 -26 15 -20 3 -22 9 -22 75 0 54 5 80 20 105 22 36 23 36 49 20 35
-22 77 16 51 47 -20 24 -59 18 -90 -14 l-29 -28 -3 25 c-4 32 -13 34 -60 15z"/>
<path d="M1370 1153 c-75 -30 -111 -134 -76 -218 33 -78 144 -99 207 -39 34
33 24 60 -12 28 -33 -30 -95 -25 -125 9 -13 16 -24 39 -24 53 0 24 1 24 96 24
l97 0 -6 46 c-7 62 -39 95 -98 100 -24 2 -51 1 -59 -3z m92 -53 c32 -44 16
-60 -58 -60 -38 0 -64 4 -64 10 0 18 29 68 42 74 27 11 62 0 80 -24z"/>
<path d="M1613 1142 c-47 -18 -56 -39 -20 -44 21 -3 22 -8 25 -100 3 -93 2
-97 -19 -100 -13 -2 -24 -9 -27 -15 -3 -10 16 -13 73 -13 57 0 76 3 73 13 -3
6 -15 13 -27 15 -22 4 -23 5 -20 130 2 75 -1 127 -6 128 -6 1 -29 -5 -52 -14z"/>
<path d="M1788 1141 c-42 -18 -49 -38 -15 -43 21 -3 22 -8 25 -100 3 -93 2
-97 -19 -100 -13 -2 -24 -9 -27 -15 -3 -10 16 -13 73 -13 57 0 76 3 73 13 -3
6 -14 13 -26 15 -20 3 -22 9 -22 69 0 60 19 125 41 139 4 2 17 -1 27 -7 36
-23 78 15 52 46 -20 24 -59 18 -90 -15 l-29 -31 -3 27 c-4 34 -13 36 -60 15z"/>
<path d="M2033 1141 c-34 -21 -51 -57 -35 -73 18 -18 46 -4 56 30 7 26 14 32
35 32 36 0 51 -17 51 -57 0 -25 -4 -33 -17 -33 -30 0 -121 -47 -132 -69 -17
-32 -13 -60 14 -86 29 -30 68 -32 111 -6 31 19 32 19 48 0 18 -21 38 -24 67
-9 29 16 25 42 -6 34 l-25 -6 0 96 c0 101 -13 147 -45 160 -32 12 -90 6 -122
-13z m103 -207 c-9 -22 -54 -36 -77 -23 -36 19 -21 60 31 87 l45 23 3 -37 c2
-20 1 -42 -2 -50z"/>
<path d="M335 742 c-78 -38 -116 -98 -117 -188 -1 -68 16 -114 55 -152 63 -61
131 -75 225 -47 l52 16 0 68 c0 60 2 69 20 74 11 3 20 10 20 16 0 7 -29 11
-80 11 -64 0 -80 -3 -80 -15 0 -10 10 -15 30 -15 l31 0 -3 -62 -3 -63 -53 -3
c-36 -2 -62 2 -78 13 -83 54 -93 218 -18 293 31 31 37 33 91 30 58 -3 58 -3
67 -40 7 -27 15 -38 28 -38 15 0 18 8 18 45 0 54 -17 66 -104 72 -46 3 -71 -1
-101 -15z"/>
<path d="M648 623 c-42 -17 -50 -40 -15 -45 21 -3 22 -8 25 -100 3 -93 2 -98
-18 -98 -11 0 -20 -7 -20 -15 0 -12 14 -15 70 -15 54 0 70 3 70 14 0 8 -10 16
-22 18 -20 3 -23 10 -26 53 -4 64 4 108 26 135 15 19 21 20 44 9 33 -15 61 2
56 35 -5 35 -62 34 -98 -2 l-29 -29 -3 25 c-4 32 -14 35 -60 15z"/>
<path d="M900 614 c-20 -18 -30 -34 -28 -48 5 -33 40 -27 58 11 11 25 22 33
41 33 30 0 43 -13 53 -52 6 -26 3 -28 -50 -45 -66 -20 -114 -61 -114 -95 0
-63 77 -98 131 -59 l29 22 31 -23 c28 -21 32 -21 56 -8 31 18 31 35 0 35 -21
0 -22 4 -27 108 -5 99 -7 110 -29 128 -36 30 -111 26 -151 -7z m130 -154 c0
-31 -5 -43 -24 -55 -35 -23 -80 -16 -84 13 -4 28 13 51 53 68 48 21 55 18 55
-26z"/>
<path d="M1219 613 c-85 -72 -75 -217 20 -259 23 -10 41 -25 41 -34 0 -8 9
-21 21 -28 27 -17 20 -36 -16 -42 -40 -7 -37 -24 3 -28 63 -6 96 52 47 84 -32
21 -32 29 5 44 34 14 73 57 64 71 -3 5 -17 0 -31 -11 -37 -29 -97 -27 -128 5
-20 19 -25 34 -25 75 0 55 20 104 45 114 38 14 61 6 76 -26 15 -35 46 -49 59
-27 12 18 -10 59 -41 75 -46 23 -103 18 -140 -13z"/>
<path d="M1490 614 c-20 -18 -30 -34 -28 -48 5 -33 40 -27 58 11 26 57 95 38
88 -23 -3 -23 -11 -30 -58 -46 -60 -20 -100 -56 -100 -91 0 -63 78 -97 131
-58 l29 22 30 -22 c25 -19 33 -21 55 -11 32 15 34 43 3 39 -22 -2 -23 1 -28
106 -5 99 -7 110 -29 128 -36 30 -111 26 -151 -7z m120 -159 c0 -50 -20 -69
-68 -63 -31 3 -42 39 -20 65 12 15 63 42 81 43 4 0 7 -20 7 -45z"/>
</g>
</svg>
